<?xml version="1.0" encoding="UTF-8" standalone="no"?>
<!DOCTYPE svg PUBLIC "-//W3C//DTD SVG 1.1//EN" "http://www.w3.org/Graphics/SVG/1.1/DTD/svg11.dtd">
<svg width="100%" height="100%" viewBox="0 0 24 24" version="1.1" xmlns="http://www.w3.org/2000/svg" xmlns:xlink="http://www.w3.org/1999/xlink" xml:space="preserve" xmlns:serif="http://www.serif.com/" style="fill-rule:evenodd;clip-rule:evenodd;stroke-linejoin:round;stroke-miterlimit:2;">
    <g transform="matrix(1,0,0,1,-1650.72,-360)">
        <g transform="matrix(0.617392,0,0,0.235967,1602.72,0)">
            <g transform="matrix(1,0,0,1,-1632.68,-610.255)">
                <g transform="matrix(-1.61972,0,0,4.23788,3304.22,-553.75)">
                    <path d="M978.845,651.375L965.155,651.375C964.172,651.375 963.375,652.172 963.375,653.155L963.375,654.845C963.375,655.828 964.172,656.625 965.155,656.625L978.845,656.625C979.828,656.625 980.625,655.828 980.625,654.845L980.625,653.155C980.625,652.172 979.828,651.375 978.845,651.375ZM978.845,652.625C979.138,652.625 979.375,652.862 979.375,653.155L979.375,654.845C979.375,655.138 979.138,655.375 978.845,655.375L965.155,655.375C964.862,655.375 964.625,655.138 964.625,654.845L964.625,653.155C964.625,652.862 964.862,652.625 965.155,652.625L978.845,652.625Z" style="fill:rgb(6,120,87);"/>
                </g>
                <g transform="matrix(1.61972,0,0,4.23788,157.652,-562.226)">
                    <path d="M964.708,654C964.708,653.655 964.988,653.375 965.333,653.375C965.678,653.375 965.958,653.655 965.958,654L965.958,658C965.958,658.345 965.678,658.625 965.333,658.625C964.988,658.625 964.708,658.345 964.708,658L964.708,654Z" style="fill:rgb(6,120,87);"/>
                </g>
                <g transform="matrix(1.61972,0,0,4.23788,161.972,-562.226)">
                    <path d="M964.708,654C964.708,653.655 964.988,653.375 965.333,653.375C965.678,653.375 965.958,653.655 965.958,654L965.958,658C965.958,658.345 965.678,658.625 965.333,658.625C964.988,658.625 964.708,658.345 964.708,658L964.708,654Z" style="fill:rgb(6,120,87);"/>
                </g>
                <g transform="matrix(1.61972,0,0,4.23788,166.291,-562.226)">
                    <path d="M964.708,654C964.708,653.655 964.988,653.375 965.333,653.375C965.678,653.375 965.958,653.655 965.958,654L965.958,658C965.958,658.345 965.678,658.625 965.333,658.625C964.988,658.625 964.708,658.345 964.708,658L964.708,654Z" style="fill:rgb(6,120,87);"/>
                </g>
                <g transform="matrix(1.61972,0,0,4.23788,170.61,-562.226)">
                    <path d="M964.708,654C964.708,653.655 964.988,653.375 965.333,653.375C965.678,653.375 965.958,653.655 965.958,654L965.958,658C965.958,658.345 965.678,658.625 965.333,658.625C964.988,658.625 964.708,658.345 964.708,658L964.708,654Z" style="fill:rgb(6,120,87);"/>
                </g>
                <g transform="matrix(1.61972,0,0,4.23788,174.929,-562.226)">
                    <path d="M964.708,654C964.708,653.655 964.988,653.375 965.333,653.375C965.678,653.375 965.958,653.655 965.958,654L965.958,658C965.958,658.345 965.678,658.625 965.333,658.625C964.988,658.625 964.708,658.345 964.708,658L964.708,654Z" style="fill:rgb(6,120,87);"/>
                </g>
                <g id="BOUNDING-BOX" transform="matrix(0.0403383,0,0,0.105543,1574.6,2015.49)">
                    <rect x="3367.07" y="1140.79" width="963.68" height="963.68" style="fill:none;"/>
                </g>
            </g>
            <g transform="matrix(1.61972,0,0,4.23788,-1479.34,-1423.93)">
                <path d="M975.918,712C974.602,713.016 972.953,713.62 971.164,713.62C966.865,713.62 963.375,710.13 963.375,705.831C963.375,701.532 966.865,698.042 971.164,698.042C973.788,698.042 976.111,699.342 977.523,701.333L975.909,701.333C974.717,700.076 973.032,699.292 971.164,699.292C967.555,699.292 964.625,702.222 964.625,705.831C964.625,709.44 967.555,712.37 971.164,712.37C971.925,712.37 972.656,712.24 973.336,712L975.918,712Z" style="fill:rgb(6,120,87);"/>
            </g>
            <g transform="matrix(1.13479,0,0,2.96911,-1008.4,-528.388)">
                <path d="M971.164,713.59C966.882,713.59 963.405,710.113 963.405,705.831C963.405,701.549 966.882,698.072 971.164,698.072L971.164,699.261C967.538,699.261 964.595,702.205 964.595,705.831C964.595,709.457 967.538,712.4 971.164,712.4L971.164,713.59Z" style="fill:rgb(6,120,87);"/>
            </g>
            <g transform="matrix(1.20159e-16,-5.13435,3.3129,5.3076e-16,-1530.61,7942.06)">
                <path d="M1239.8,494.005C1239.8,494.063 1239.88,494.111 1239.98,494.111L1240.7,494.111C1240.78,494.111 1240.86,494.14 1240.89,494.184C1240.92,494.229 1240.9,494.28 1240.85,494.315L1238.85,495.53C1238.81,495.553 1238.76,495.566 1238.7,495.566C1238.65,495.566 1238.59,495.553 1238.56,495.53L1236.56,494.315C1236.5,494.28 1236.48,494.229 1236.52,494.184C1236.55,494.14 1236.62,494.111 1236.7,494.111L1237.42,494.111C1237.52,494.111 1237.6,494.063 1237.6,494.005L1237.6,491.11C1237.6,491.081 1237.62,491.054 1237.65,491.034C1237.69,491.014 1237.73,491.003 1237.78,491.003L1239.62,491.003C1239.67,491.003 1239.71,491.014 1239.75,491.034C1239.78,491.054 1239.8,491.081 1239.8,491.11L1239.8,494.005ZM1244.2,491.26L1244.2,494.156C1244.2,494.184 1244.18,494.211 1244.15,494.231C1244.12,494.251 1244.07,494.262 1244.02,494.262L1242.18,494.262C1242.13,494.262 1242.09,494.251 1242.06,494.231C1242.02,494.211 1242,494.184 1242,494.156L1242,491.26C1242,491.202 1241.92,491.154 1241.82,491.154L1241.11,491.154C1241.02,491.154 1240.95,491.125 1240.92,491.081C1240.89,491.036 1240.9,490.985 1240.96,490.95L1242.96,489.735C1243,489.712 1243.05,489.699 1243.1,489.699C1243.16,489.699 1243.21,489.712 1243.25,489.735L1245.25,490.95C1245.3,490.985 1245.32,491.036 1245.29,491.081C1245.26,491.125 1245.18,491.154 1245.1,491.154L1244.38,491.154C1244.28,491.154 1244.2,491.202 1244.2,491.26Z" style="fill:rgb(51,212,153);"/>
            </g>
        </g>
    </g>
</svg>
