<svg width="24" height="24" viewBox="0 0 24 24" fill="none" xmlns="http://www.w3.org/2000/svg">
<path fill-rule="evenodd" clip-rule="evenodd" d="M6.99999 5.04493V3.04492H21V5.04493H6.99999ZM3.99999 5.04493C3.71999 5.04493 3.48002 4.94537 3.29002 4.75537C3.10002 4.56537 2.99998 4.32492 2.99998 4.04492C2.99998 3.76492 3.10002 3.52496 3.29002 3.33496C3.48002 3.14496 3.71999 3.04492 3.99999 3.04492C4.27999 3.04492 4.51995 3.14496 4.70995 3.33496C4.90995 3.52496 4.99999 3.76492 4.99999 4.04492C4.99999 4.32492 4.90995 4.56537 4.70995 4.75537C4.51995 4.94537 4.27999 5.04493 3.99999 5.04493ZM6.99999 9.02491V7.02491H21V9.02491H6.99999ZM3.99999 9.02491C3.71999 9.02491 3.48002 8.92536 3.29002 8.73536C3.10002 8.54536 2.99998 8.30491 2.99998 8.02491C2.99998 7.73491 3.10002 7.50518 3.29002 7.30518C3.48002 7.11518 3.71999 7.02491 3.99999 7.02491C4.27999 7.02491 4.51995 7.11518 4.70995 7.30518C4.90995 7.50518 4.99999 7.73491 4.99999 8.02491C4.99999 8.30491 4.90995 8.54536 4.70995 8.73536C4.51995 8.92536 4.27999 9.02491 3.99999 9.02491ZM6.99999 20.9551V18.9551H10.2798V20.9551H6.99999ZM3.99999 20.9551C3.71999 20.9551 3.48002 20.8551 3.29002 20.6651C3.10002 20.4751 2.99998 20.2351 2.99998 19.9551C2.99998 19.6651 3.10002 19.4351 3.29002 19.2451C3.48002 19.0451 3.71999 18.9551 3.99999 18.9551C4.27999 18.9551 4.51995 19.0451 4.70995 19.2451C4.90995 19.4351 4.99999 19.6651 4.99999 19.9551C4.99999 20.2351 4.90995 20.4751 4.70995 20.6651C4.51995 20.8551 4.27999 20.9551 3.99999 20.9551ZM6.99999 12.9951V10.9951H10.2798V12.9951H6.99999ZM3.99999 12.9951C3.71999 12.9951 3.48002 12.9053 3.29002 12.7153C3.10002 12.5253 2.99998 12.2851 2.99998 11.9951C2.99998 11.7151 3.10002 11.4752 3.29002 11.2852C3.48002 11.0952 3.71999 10.9951 3.99999 10.9951C4.27999 10.9951 4.51995 11.0952 4.70995 11.2852C4.90995 11.4752 4.99999 11.7151 4.99999 11.9951C4.99999 12.2851 4.90995 12.5253 4.70995 12.7153C4.51995 12.9053 4.27999 12.9951 3.99999 12.9951ZM6.99999 16.9751V14.9751H10.2798V16.9751H6.99999ZM3.99999 16.9751C3.71999 16.9751 3.48002 16.8851 3.29002 16.6851C3.10002 16.4951 2.99998 16.2551 2.99998 15.9751C2.99998 15.6951 3.10002 15.4552 3.29002 15.2652C3.48002 15.0752 3.71999 14.9751 3.99999 14.9751C4.27999 14.9751 4.51995 15.0752 4.70995 15.2652C4.90995 15.4552 4.99999 15.6951 4.99999 15.9751C4.99999 16.2551 4.90995 16.4951 4.70995 16.6851C4.51995 16.8851 4.27999 16.9751 3.99999 16.9751ZM14.6699 20.9551L14.4697 19.375C14.3597 19.325 14.2599 19.2851 14.1699 19.2251C14.0699 19.1651 13.9797 19.1052 13.8897 19.0352L12.4199 19.6553L11.0596 17.3052L12.3296 16.335C12.3196 16.285 12.3198 16.2253 12.3198 16.1753V15.835C12.3198 15.785 12.3196 15.7353 12.3296 15.6753L11.0596 14.7051L12.4199 12.355L13.8897 12.9751C13.9797 12.9151 14.0699 12.8449 14.1699 12.7949C14.2699 12.7349 14.3697 12.685 14.4697 12.645L14.6699 11.0552H17.3897L17.5899 12.645C17.6899 12.685 17.7897 12.7349 17.8897 12.7949C17.9797 12.8449 18.0799 12.9151 18.1699 12.9751L19.6397 12.355L21 14.7051L19.73 15.6753C19.74 15.7353 19.7398 15.785 19.7398 15.835V16.1753C19.7398 16.2253 19.73 16.285 19.71 16.335L20.9898 17.3052L19.6299 19.6553L18.1699 19.0352C18.0799 19.1052 17.9799 19.1651 17.8799 19.2251C17.7799 19.2851 17.6899 19.325 17.5899 19.375L17.3897 20.9551H14.6699ZM16.0498 17.7354C16.5298 17.7354 16.9398 17.5654 17.2798 17.2354C17.6198 16.8954 17.7798 16.4854 17.7798 16.0054C17.7798 15.5254 17.6198 15.1252 17.2798 14.7852C16.9398 14.4452 16.5298 14.2749 16.0498 14.2749C15.5698 14.2749 15.1598 14.4452 14.8198 14.7852C14.4898 15.1252 14.3198 15.5254 14.3198 16.0054C14.3198 16.4854 14.4898 16.8954 14.8198 17.2354C15.1598 17.5654 15.5698 17.7354 16.0498 17.7354Z" fill="black"/>
</svg>
