<?xml version="1.0" encoding="UTF-8" standalone="no"?>
<!DOCTYPE svg PUBLIC "-//W3C//DTD SVG 1.1//EN" "http://www.w3.org/Graphics/SVG/1.1/DTD/svg11.dtd">
<svg width="100%" height="100%" viewBox="0 0 24 24" version="1.1" xmlns="http://www.w3.org/2000/svg" xmlns:xlink="http://www.w3.org/1999/xlink" xml:space="preserve" xmlns:serif="http://www.serif.com/" style="fill-rule:evenodd;clip-rule:evenodd;stroke-linejoin:round;stroke-miterlimit:2;">
    <g transform="matrix(1,0,0,1,-1644.83,-92.2811)">
        <g transform="matrix(1,0,0,1,-0.446001,0)">
            <g transform="matrix(0.617392,0,0,0.235967,853.28,-171.719)">
                <g id="BOUNDING-BOX" transform="matrix(0.0403383,0,0,0.105543,1146.99,998.399)">
                    <rect x="3367.07" y="1140.79" width="963.68" height="963.68" style="fill:none;"/>
                </g>
                <g transform="matrix(2.59155,0,0,4.23788,-537.314,5.65051)">
                    <path d="M712.75,268C713.44,268 714,268.895 714,270L714,282C714,283.105 713.44,284 712.75,284L705.25,284C704.56,284 704,283.105 704,282L704,270C704,268.895 704.56,268 705.25,268L712.75,268Z" style="fill:rgb(51,212,153);"/>
                </g>
                <g transform="matrix(2.59155,0,0,4.23788,-537.314,5.65051)">
                    <path d="M706.057,267.375L706.057,268.625L712.75,268.625C713.225,268.625 713.609,269.241 713.609,270L713.609,280.708L714.391,280.708L714.391,270C714.391,268.55 713.656,267.375 712.75,267.375L706.057,267.375Z" style="fill:rgb(6,120,87);"/>
                </g>
                <g transform="matrix(2.59155,0,0,4.23788,-532.995,-5.65051)">
                    <path d="M712.75,268C713.44,268 714,268.895 714,270L714,282C714,283.105 713.44,284 712.75,284L705.25,284C704.56,284 704,283.105 704,282L704,270C704,268.895 704.56,268 705.25,268L712.75,268Z" style="fill:white;"/>
                </g>
                <g transform="matrix(1.34976,0,0,4.23788,349.319,-2.82525)">
                    <path d="M714.75,283.958L714.75,284C714.75,285.45 713.34,286.625 711.6,286.625L697.2,286.625C695.46,286.625 694.05,285.45 694.05,284L694.05,272C694.05,270.55 695.46,269.375 697.2,269.375L697.25,269.375L697.25,269.333C697.25,267.884 698.66,266.708 700.4,266.708L714.8,266.708C716.54,266.708 717.95,267.884 717.95,269.333L717.95,281.333C717.95,282.783 716.54,283.958 714.8,283.958L714.75,283.958ZM697.25,270.625L697.2,270.625C696.289,270.625 695.55,271.241 695.55,272L695.55,284C695.55,284.759 696.289,285.375 697.2,285.375L711.6,285.375C712.511,285.375 713.25,284.759 713.25,284L713.25,283.958L700.4,283.958C698.66,283.958 697.25,282.783 697.25,281.333L697.25,270.625ZM700.4,282.708L714.8,282.708C715.711,282.708 716.45,282.093 716.45,281.333L716.45,269.333C716.45,268.574 715.711,267.958 714.8,267.958L700.4,267.958C699.489,267.958 698.75,268.574 698.75,269.333L698.75,281.333C698.75,282.093 699.489,282.708 700.4,282.708ZM706,270.625C705.586,270.625 705.25,270.345 705.25,270C705.25,269.655 705.586,269.375 706,269.375L714,269.375C714.414,269.375 714.75,269.655 714.75,270C714.75,270.345 714.414,270.625 714,270.625L706,270.625ZM701.2,281.292C700.786,281.292 700.45,281.012 700.45,280.667C700.45,280.322 700.786,280.042 701.2,280.042L702.8,280.042C703.214,280.042 703.55,280.322 703.55,280.667C703.55,281.012 703.214,281.292 702.8,281.292L701.2,281.292ZM706,281.292C705.586,281.292 705.25,281.012 705.25,280.667C705.25,280.322 705.586,280.042 706,280.042L714,280.042C714.414,280.042 714.75,280.322 714.75,280.667C714.75,281.012 714.414,281.292 714,281.292L706,281.292ZM706,278.625C705.586,278.625 705.25,278.345 705.25,278C705.25,277.655 705.586,277.375 706,277.375L714,277.375C714.414,277.375 714.75,277.655 714.75,278C714.75,278.345 714.414,278.625 714,278.625L706,278.625ZM701.2,275.958C700.786,275.958 700.45,275.678 700.45,275.333C700.45,274.988 700.786,274.708 701.2,274.708L702.8,274.708C703.214,274.708 703.55,274.988 703.55,275.333C703.55,275.678 703.214,275.958 702.8,275.958L701.2,275.958ZM701.2,278.625C700.786,278.625 700.45,278.345 700.45,278C700.45,277.655 700.786,277.375 701.2,277.375L702.8,277.375C703.214,277.375 703.55,277.655 703.55,278C703.55,278.345 703.214,278.625 702.8,278.625L701.2,278.625ZM701.2,270.625C700.786,270.625 700.45,270.345 700.45,270C700.45,269.655 700.786,269.375 701.2,269.375L702.8,269.375C703.214,269.375 703.55,269.655 703.55,270C703.55,270.345 703.214,270.625 702.8,270.625L701.2,270.625ZM701.2,273.292C700.786,273.292 700.45,273.012 700.45,272.667C700.45,272.322 700.786,272.042 701.2,272.042L702.8,272.042C703.214,272.042 703.55,272.322 703.55,272.667C703.55,273.012 703.214,273.292 702.8,273.292L701.2,273.292ZM706,275.958C705.586,275.958 705.25,275.678 705.25,275.333C705.25,274.988 705.586,274.708 706,274.708L714,274.708C714.414,274.708 714.75,274.988 714.75,275.333C714.75,275.678 714.414,275.958 714,275.958L706,275.958ZM706,273.292C705.586,273.292 705.25,273.012 705.25,272.667C705.25,272.322 705.586,272.042 706,272.042L714,272.042C714.414,272.042 714.75,272.322 714.75,272.667C714.75,273.012 714.414,273.292 714,273.292L706,273.292Z" style="fill:rgb(6,120,87);"/>
                </g>
            </g>
        </g>
    </g>
</svg>
