<?xml version="1.0" encoding="UTF-8" standalone="no"?>
<!DOCTYPE svg PUBLIC "-//W3C//DTD SVG 1.1//EN" "http://www.w3.org/Graphics/SVG/1.1/DTD/svg11.dtd">
<svg width="100%" height="100%" viewBox="0 0 24 24" version="1.1" xmlns="http://www.w3.org/2000/svg" xmlns:xlink="http://www.w3.org/1999/xlink" xml:space="preserve" xmlns:serif="http://www.serif.com/" style="fill-rule:evenodd;clip-rule:evenodd;stroke-linejoin:round;stroke-miterlimit:2;">
    <g transform="matrix(1,0,0,1,-1644.83,-236.281)">
        <g transform="matrix(1,0,0,1,-0.446001,0)">
            <g transform="matrix(0.617392,0,0,0.235967,853.28,-27.7189)">
                <g transform="matrix(1.94366,0,0,4.23788,-75.8028,-2.43858e-11)">
                    <path d="M707.889,285.333C706.039,285.333 704.739,285.333 702.889,285.333C701.968,285.333 701.222,284.438 701.222,283.333C701.222,280.259 701.222,271.741 701.222,268.667C701.222,267.562 701.968,266.667 702.889,266.667C704.739,266.667 712.15,266.667 714,266.667C714.92,266.667 715.667,267.562 715.667,268.667C715.667,270.836 715.667,273.734 715.667,276.718" style="fill:white;"/>
                </g>
                <g transform="matrix(1.94366,0,0,4.23788,-75.8028,-2.4329e-11)">
                    <path d="M707.889,284.708C708.176,284.708 708.41,284.988 708.41,285.333C708.41,285.678 708.176,285.958 707.889,285.958L702.889,285.958C701.681,285.958 700.701,284.783 700.701,283.333L700.701,268.667C700.701,267.217 701.681,266.042 702.889,266.042L714,266.042C715.208,266.042 716.187,267.217 716.188,268.667L716.188,276.718C716.188,277.063 715.954,277.343 715.667,277.343C715.379,277.343 715.146,277.063 715.146,276.718L715.146,268.667C715.146,267.907 714.633,267.292 714,267.292L702.889,267.292C702.256,267.292 701.743,267.907 701.743,268.667L701.743,283.333C701.743,284.093 702.256,284.708 702.889,284.708L707.889,284.708ZM703.806,272.239L703.806,273.856L702.618,273.856L702.618,268.463L703.639,268.463L704.48,268.456C704.818,268.45 705.118,268.529 705.379,268.691C705.64,268.852 705.844,269.076 705.992,269.361C706.139,269.646 706.213,269.973 706.213,270.343C706.213,270.713 706.139,271.04 705.992,271.326C705.844,271.611 705.64,271.834 705.379,271.996C705.118,272.158 704.818,272.239 704.48,272.239L703.806,272.239ZM703.806,269.765L703.806,270.929L704.448,270.929C704.61,270.929 704.742,270.875 704.843,270.767C704.943,270.659 704.993,270.518 704.993,270.343C704.993,270.23 704.97,270.13 704.923,270.043C704.876,269.955 704.812,269.887 704.73,269.839C704.649,269.79 704.555,269.765 704.448,269.765L703.806,269.765ZM708.133,273.856L706.631,273.856L706.631,268.463L708.133,268.463C708.625,268.463 709.061,268.579 709.44,268.81C709.818,269.041 710.115,269.358 710.329,269.761C710.543,270.165 710.65,270.631 710.65,271.16C710.65,271.684 710.543,272.149 710.329,272.554C710.115,272.96 709.818,273.279 709.44,273.51C709.061,273.741 708.625,273.856 708.133,273.856ZM707.818,269.812L707.818,272.508L708.133,272.508C708.321,272.508 708.495,272.475 708.653,272.408C708.811,272.341 708.948,272.249 709.064,272.131C709.18,272.013 709.269,271.871 709.334,271.707C709.398,271.543 709.43,271.36 709.43,271.16C709.43,270.96 709.398,270.777 709.334,270.613C709.269,270.448 709.18,270.307 709.064,270.189C708.948,270.071 708.811,269.979 708.653,269.912C708.495,269.845 708.321,269.812 708.133,269.812L707.818,269.812ZM712.383,271.869L712.383,273.856L711.196,273.856L711.196,268.463L714.271,268.463L714.271,269.773L712.383,269.773L712.383,270.559L713.86,270.559L713.86,271.869L712.383,271.869Z" style="fill:rgb(6,120,87);"/>
                </g>
                <g id="BOUNDING-BOX" transform="matrix(0.0403383,0,0,0.105543,1146.99,998.399)">
                    <rect x="3367.07" y="1140.79" width="963.68" height="963.68" style="fill:none;"/>
                </g>
                <g transform="matrix(3.5248,0,0,15.5696,-3057.79,-6500.68)">
                    <path d="M1239.85,494.005C1239.85,494.063 1239.93,494.111 1240.03,494.111C1240.2,494.111 1240.46,494.111 1240.7,494.111C1240.78,494.111 1240.86,494.14 1240.89,494.184C1240.92,494.229 1240.9,494.28 1240.85,494.315C1240.3,494.648 1239.23,495.294 1238.85,495.53C1238.81,495.553 1238.76,495.566 1238.7,495.566C1238.65,495.566 1238.59,495.553 1238.56,495.53C1238.17,495.294 1237.11,494.648 1236.56,494.315C1236.5,494.28 1236.48,494.229 1236.52,494.184C1236.55,494.14 1236.62,494.111 1236.7,494.111C1236.97,494.111 1237.38,494.111 1237.58,494.111C1237.67,494.111 1237.75,494.063 1237.75,494.005C1237.75,493.646 1237.75,493.478 1237.75,493.119C1237.75,493.09 1237.77,493.063 1237.81,493.043C1237.84,493.023 1237.89,493.012 1237.93,493.012C1238.35,493.012 1239.26,493.012 1239.67,493.012C1239.71,493.012 1239.76,493.023 1239.8,493.043C1239.83,493.063 1239.85,493.09 1239.85,493.119C1239.85,493.478 1239.85,493.646 1239.85,494.005Z" style="fill:rgb(51,212,153);"/>
                </g>
            </g>
        </g>
    </g>
</svg>
