<?xml version="1.0" encoding="UTF-8" standalone="no"?>
<!DOCTYPE svg PUBLIC "-//W3C//DTD SVG 1.1//EN" "http://www.w3.org/Graphics/SVG/1.1/DTD/svg11.dtd">
<svg width="100%" height="100%" viewBox="0 0 24 24" version="1.1" xmlns="http://www.w3.org/2000/svg" xmlns:xlink="http://www.w3.org/1999/xlink" xml:space="preserve" xmlns:serif="http://www.serif.com/" style="fill-rule:evenodd;clip-rule:evenodd;stroke-linejoin:round;stroke-miterlimit:2;">
    <g transform="matrix(1,0,0,1,-1644.83,-188.281)">
        <g transform="matrix(1,0,0,1,-0.446001,0)">
            <g transform="matrix(0.617392,0,0,0.235967,853.28,-75.7189)">
                <g id="BOUNDING-BOX" transform="matrix(0.0403383,0,0,0.105543,1146.99,998.399)">
                    <rect x="3367.07" y="1140.79" width="963.68" height="963.68" style="fill:none;"/>
                </g>
                <g transform="matrix(1.61972,0,0,4.23788,-816.338,-915.383)">
                    <path d="M1301.33,482.042C1301.33,482.042 1301.33,482.042 1301.33,482.042L1305.55,482.042C1305.98,482.042 1306.4,482.213 1306.7,482.518L1307.45,483.265C1307.52,483.335 1307.61,483.375 1307.71,483.375L1308.22,483.375C1308.32,483.375 1308.41,483.335 1308.48,483.265L1309.23,482.518C1309.54,482.213 1309.95,482.042 1310.38,482.042L1315.33,482.042C1316.03,482.042 1316.7,482.318 1317.19,482.811C1317.68,483.303 1317.96,483.97 1317.96,484.667L1317.96,498C1317.96,498.696 1317.68,499.364 1317.19,499.856C1316.7,500.348 1316.03,500.625 1315.33,500.625L1310.38,500.625C1310.28,500.625 1310.19,500.664 1310.12,500.735L1309.37,501.482C1309.06,501.787 1308.65,501.958 1308.22,501.958L1307.71,501.958C1307.28,501.958 1306.87,501.787 1306.57,501.482L1305.82,500.735C1305.75,500.664 1305.65,500.625 1305.55,500.625L1300.67,500.625C1299.97,500.625 1299.3,500.348 1298.81,499.856C1298.32,499.364 1298.04,498.696 1298.04,498L1298.04,484.667C1298.04,483.97 1298.32,483.303 1298.81,482.811C1299.3,482.318 1299.97,482.042 1300.67,482.042L1301.33,482.042ZM1300.67,483.292C1300.3,483.292 1299.95,483.437 1299.69,483.694C1299.44,483.952 1299.29,484.302 1299.29,484.667L1299.29,498C1299.29,498.365 1299.44,498.714 1299.69,498.972C1299.95,499.23 1300.3,499.375 1300.67,499.375L1305.55,499.375C1305.98,499.375 1306.4,499.546 1306.7,499.851L1307.45,500.599C1307.52,500.669 1307.61,500.708 1307.71,500.708L1308.22,500.708C1308.32,500.708 1308.41,500.669 1308.48,500.598L1309.23,499.851C1309.54,499.546 1309.95,499.375 1310.38,499.375L1315.33,499.375C1315.7,499.375 1316.05,499.23 1316.31,498.972C1316.56,498.714 1316.71,498.365 1316.71,498L1316.71,484.667C1316.71,484.302 1316.56,483.952 1316.31,483.694C1316.05,483.437 1315.7,483.292 1315.33,483.292L1310.38,483.292C1310.28,483.292 1310.19,483.331 1310.12,483.402L1309.37,484.149C1309.06,484.454 1308.65,484.625 1308.22,484.625L1307.71,484.625C1307.28,484.625 1306.87,484.454 1306.57,484.149L1305.82,483.401C1305.75,483.331 1305.65,483.292 1305.55,483.292L1300.67,483.292ZM1312,498.095C1310.95,498.095 1310.03,497.84 1309.45,497.471C1308.93,497.135 1308.67,496.69 1308.67,496.242L1308.67,496.239C1308.67,496.148 1308.73,496.068 1308.82,496.043C1308.9,496.018 1309,496.055 1309.05,496.133C1309.37,496.481 1310.18,497.017 1312,497.017C1313.82,497.017 1314.63,496.481 1314.95,496.133C1315,496.055 1315.1,496.018 1315.18,496.043C1315.27,496.068 1315.33,496.148 1315.33,496.239L1315.33,496.242C1315.33,496.69 1315.07,497.135 1314.55,497.471C1313.97,497.84 1313.05,498.095 1312,498.095ZM1312,496.325C1310.95,496.325 1310.03,496.071 1309.45,495.702C1308.93,495.366 1308.67,494.92 1308.67,494.472L1308.67,494.47C1308.67,494.378 1308.73,494.298 1308.82,494.273C1308.9,494.249 1309,494.285 1309.05,494.363C1309.37,494.712 1310.18,495.247 1312,495.247C1313.82,495.247 1314.63,494.712 1314.95,494.363C1315,494.285 1315.1,494.249 1315.18,494.273C1315.27,494.298 1315.33,494.378 1315.33,494.47L1315.33,494.472C1315.33,494.92 1315.07,495.366 1314.55,495.702C1313.97,496.071 1313.05,496.325 1312,496.325ZM1301.33,492.14C1300.99,492.14 1300.71,491.86 1300.71,491.515C1300.71,491.17 1300.99,490.89 1301.33,490.89L1306.67,490.89C1307.01,490.89 1307.29,491.17 1307.29,491.515C1307.29,491.86 1307.01,492.14 1306.67,492.14L1301.33,492.14ZM1301.33,494.807C1300.99,494.807 1300.71,494.527 1300.71,494.182C1300.71,493.837 1300.99,493.557 1301.33,493.557L1306.67,493.557C1307.01,493.557 1307.29,493.837 1307.29,494.182C1307.29,494.527 1307.01,494.807 1306.67,494.807L1301.33,494.807ZM1301.33,497.474C1300.99,497.474 1300.71,497.194 1300.71,496.849C1300.71,496.504 1300.99,496.224 1301.33,496.224L1306.67,496.224C1307.01,496.224 1307.29,496.504 1307.29,496.849C1307.29,497.194 1307.01,497.474 1306.67,497.474L1301.33,497.474ZM1309.33,486.807C1308.99,486.807 1308.71,486.527 1308.71,486.182C1308.71,485.837 1308.99,485.557 1309.33,485.557L1314.67,485.557C1315.01,485.557 1315.29,485.837 1315.29,486.182C1315.29,486.527 1315.01,486.807 1314.67,486.807L1309.33,486.807ZM1301.33,489.474C1300.99,489.474 1300.71,489.194 1300.71,488.849C1300.71,488.504 1300.99,488.224 1301.33,488.224L1306.67,488.224C1307.01,488.224 1307.29,488.504 1307.29,488.849C1307.29,489.194 1307.01,489.474 1306.67,489.474L1301.33,489.474ZM1309.33,489.474C1308.99,489.474 1308.71,489.194 1308.71,488.849C1308.71,488.504 1308.99,488.224 1309.33,488.224L1314.67,488.224C1315.01,488.224 1315.29,488.504 1315.29,488.849C1315.29,489.194 1315.01,489.474 1314.67,489.474L1309.33,489.474ZM1301.33,486.807C1300.99,486.807 1300.71,486.527 1300.71,486.182C1300.71,485.837 1300.99,485.557 1301.33,485.557L1306.67,485.557C1307.01,485.557 1307.29,485.837 1307.29,486.182C1307.29,486.527 1307.01,486.807 1306.67,486.807L1301.33,486.807Z" style="fill:rgb(6,120,87);"/>
                </g>
                <g transform="matrix(1.74649,0,0,7.94803,-103.464,-2203.53)">
                    <ellipse cx="808.591" cy="424.701" rx="2.591" ry="0.701" style="fill:rgb(110,231,183);"/>
                </g>
                <g transform="matrix(1.74649,0,0,7.94803,-103.464,-2203.53)">
                    <path d="M808.591,423.667C809.58,423.667 810.452,423.806 810.995,424.006C811.509,424.196 811.762,424.448 811.762,424.701C811.762,424.953 811.509,425.206 810.995,425.395C810.452,425.595 809.58,425.735 808.591,425.735C807.603,425.735 806.731,425.595 806.187,425.395C805.674,425.206 805.42,424.953 805.42,424.701C805.42,424.448 805.674,424.196 806.187,424.006C806.731,423.806 807.603,423.667 808.591,423.667ZM808.591,424.333C807.973,424.333 807.412,424.397 807.006,424.507C806.876,424.542 806.764,424.581 806.679,424.626C806.631,424.651 806.58,424.671 806.58,424.701C806.58,424.731 806.631,424.751 806.679,424.776C806.764,424.82 806.876,424.859 807.006,424.895C807.412,425.004 807.973,425.068 808.591,425.068C809.21,425.068 809.771,425.004 810.177,424.895C810.307,424.859 810.419,424.82 810.504,424.776C810.552,424.751 810.603,424.731 810.603,424.701C810.603,424.671 810.552,424.651 810.504,424.626C810.419,424.581 810.307,424.542 810.177,424.507C809.771,424.397 809.21,424.333 808.591,424.333Z" style="fill:rgb(6,120,87);"/>
                </g>
            </g>
        </g>
    </g>
</svg>
