<svg width="24" height="24" viewBox="0 0 24 24" fill="none" xmlns="http://www.w3.org/2000/svg">
<path fill-rule="evenodd" clip-rule="evenodd" d="M4.925 19.075C5.67982 19.8298 6.546 20.4527 7.52356 20.9438V18.6732C7.1036 18.3868 6.70408 18.0541 6.325 17.675C4.775 16.125 4 14.2333 4 12C4 11.1 4.14583 10.2333 4.4375 9.4C4.72917 8.56667 5.15 7.8 5.7 7.1L11.2255 12.6255H14.0255L7.1 5.7C7.8 5.15 8.56667 4.72917 9.4 4.4375C10.2333 4.14583 11.1 4 12 4C14.2333 4 16.125 4.775 17.675 6.325C19.225 7.875 20 9.76667 20 12C20 12.2103 19.992 12.4188 19.9761 12.6255H21.9818C21.9939 12.4189 22 12.2104 22 12C22 10.6167 21.7375 9.31667 21.2125 8.1C20.6875 6.88333 19.975 5.825 19.075 4.925C18.175 4.025 17.1167 3.3125 15.9 2.7875C14.6833 2.2625 13.3833 2 12 2C10.6167 2 9.31667 2.2625 8.1 2.7875C6.88333 3.3125 5.825 4.025 4.925 4.925C4.025 5.825 3.3125 6.88333 2.7875 8.1C2.2625 9.31667 2 10.6167 2 12C2 13.3833 2.2625 14.6833 2.7875 15.9C3.3125 17.1167 4.025 18.175 4.925 19.075ZM10.3027 14.2712C9.75049 14.2712 9.30273 14.719 9.30273 15.2712V21C9.30273 21.5523 9.75049 22 10.3027 22H21.3352C21.8876 22 22.3352 21.5523 22.3352 21V15.2712C22.3352 14.719 21.8876 14.2712 21.3352 14.2712H10.3027ZM18.9667 17.0728H18.3091V20.1849H19.0372V18.4116C19.0372 17.8831 19.2897 17.5954 19.7124 17.5954C20.1176 17.5954 20.2585 17.8831 20.2585 18.4116V20.1849H20.9866V18.1826C20.9866 17.4897 20.6167 17.0023 19.9238 17.0023C19.507 17.0023 19.1547 17.1726 18.9902 17.5836L18.9667 17.0728ZM16.4263 20.2553C15.5044 20.2553 14.8995 19.6153 14.8995 18.6288C14.8995 17.6424 15.5044 17.0023 16.4263 17.0023C17.3481 17.0023 17.9529 17.6424 17.9529 18.6288C17.9529 19.6153 17.3481 20.2553 16.4263 20.2553ZM15.6511 18.6288C15.6511 19.2747 15.933 19.6564 16.4263 19.6564C16.9194 19.6564 17.2013 19.2747 17.2013 18.6288C17.2013 17.9829 16.9194 17.6013 16.4263 17.6013C15.933 17.6013 15.6511 17.9829 15.6511 18.6288ZM13.3022 17.6013C13.637 17.6013 13.9247 17.8185 13.9775 18.2061L14.7291 18.165C14.6469 17.4427 14.0363 17.0023 13.3022 17.0023C12.3804 17.0023 11.7756 17.6424 11.7756 18.6288C11.7756 19.6153 12.3804 20.2553 13.3022 20.2553C14.0597 20.2553 14.6646 19.7915 14.7526 19.0457L14.001 19.0105C13.9364 19.4333 13.6545 19.6564 13.3022 19.6564C12.809 19.6564 12.5272 19.2747 12.5272 18.6288C12.5272 17.9829 12.809 17.6013 13.3022 17.6013ZM10.6631 17.0728H11.3912V20.1848H10.6631V17.0728ZM10.6514 16.6324V16.0159H11.4088V16.6324H10.6514Z" fill="black"/>
</svg>
