<?xml version="1.0" encoding="UTF-8" standalone="no"?>
<!DOCTYPE svg PUBLIC "-//W3C//DTD SVG 1.1//EN" "http://www.w3.org/Graphics/SVG/1.1/DTD/svg11.dtd">
<svg width="100%" height="100%" viewBox="0 0 24 24" version="1.1" xmlns="http://www.w3.org/2000/svg" xmlns:xlink="http://www.w3.org/1999/xlink" xml:space="preserve" xmlns:serif="http://www.serif.com/" style="fill-rule:evenodd;clip-rule:evenodd;stroke-linejoin:round;stroke-miterlimit:2;">
    <g transform="matrix(1,0,0,1,-1654,-310)">
        <g transform="matrix(1,0,0,1,-0.446001,0)">
            <g transform="matrix(0.617392,0,0,0.235967,598.446,-194)">
                <g transform="matrix(1.07981,0,0,2.82525,576.619,725.149)">
                    <path d="M1056.37,528.412L1056.31,528.348C1055.03,526.758 1054.7,524.521 1055.49,522.594L1058.78,514.537C1059.52,512.727 1060.83,511.312 1062.43,510.479C1062.32,510.291 1062.25,510.07 1062.25,509.833C1062.25,509.143 1062.81,508.583 1063.5,508.583L1064.1,508.583L1063.11,505.63C1063.02,505.344 1063.06,505.03 1063.24,504.785C1063.42,504.541 1063.7,504.396 1064,504.396L1072,504.396C1072.3,504.396 1072.58,504.541 1072.76,504.785C1072.94,505.03 1072.99,505.344 1072.89,505.63L1071.9,508.583L1072.5,508.583C1073.19,508.583 1073.75,509.143 1073.75,509.833C1073.75,510.219 1073.58,510.565 1073.3,510.794C1074.65,511.648 1075.75,512.938 1076.4,514.537L1079.69,522.594C1080.48,524.521 1080.15,526.759 1078.87,528.35L1078.82,528.412C1077.86,529.596 1076.46,530.271 1074.99,530.271L1060.19,530.271C1058.72,530.271 1057.32,529.596 1056.37,528.412C1056.54,528.632 1056.53,528.572 1056.38,528.417L1056.37,528.412ZM1057.82,527.236C1057.94,527.414 1057.96,527.405 1057.82,527.232C1058.42,527.967 1059.28,528.396 1060.19,528.396L1074.99,528.396C1075.9,528.396 1076.77,527.967 1077.36,527.232L1077.41,527.17L1078.14,528.696L1077.41,527.168C1078.28,526.1 1078.49,524.597 1077.96,523.304L1074.66,515.246C1073.75,512.993 1071.67,511.521 1069.37,511.521L1065.82,511.521C1063.51,511.521 1061.44,512.993 1060.52,515.246L1057.22,523.304C1056.7,524.597 1056.9,526.1 1057.77,527.168L1057.82,527.232L1057.82,527.236ZM1069.93,508.583L1070.7,506.271L1065.3,506.271L1066.07,508.583L1069.93,508.583Z" style="fill:rgb(6,120,87);"/>
                </g>
                <g transform="matrix(1.61972,0,0,4.23788,-4.13558,0)">
                    <path d="M1066.04,520.769C1065.98,520.769 1065.94,520.75 1065.9,520.713C1065.87,520.676 1065.85,520.633 1065.85,520.584L1065.85,515.775C1065.85,515.72 1065.87,515.676 1065.9,515.641C1065.94,515.607 1065.98,515.59 1066.04,515.59L1068.05,515.59C1068.69,515.59 1069.19,515.736 1069.56,516.03C1069.92,516.323 1070.11,516.739 1070.11,517.277C1070.11,517.627 1070.02,517.923 1069.85,518.164C1069.69,518.406 1069.46,518.589 1069.19,518.712L1070.2,520.532C1070.22,520.562 1070.22,520.589 1070.22,520.613C1070.22,520.653 1070.21,520.689 1070.18,520.721C1070.14,520.753 1070.11,520.769 1070.07,520.769L1069.09,520.769C1068.99,520.769 1068.92,520.745 1068.88,520.699C1068.83,520.652 1068.8,520.609 1068.78,520.569L1067.94,518.941L1067.18,518.941L1067.18,520.584C1067.18,520.633 1067.16,520.676 1067.13,520.713C1067.09,520.75 1067.05,520.769 1066.99,520.769L1066.04,520.769ZM1067.18,517.891L1068.03,517.891C1068.27,517.891 1068.44,517.834 1068.56,517.721C1068.67,517.607 1068.73,517.454 1068.73,517.262C1068.73,517.069 1068.67,516.914 1068.56,516.796C1068.45,516.677 1068.28,516.618 1068.03,516.618L1067.18,516.618L1067.18,517.891ZM1071.15,520.769C1071.1,520.769 1071.05,520.75 1071.02,520.713C1070.98,520.676 1070.96,520.633 1070.96,520.584L1070.96,515.775C1070.96,515.72 1070.98,515.676 1071.02,515.641C1071.05,515.607 1071.1,515.59 1071.15,515.59L1073.22,515.59C1073.63,515.59 1073.99,515.653 1074.29,515.778C1074.59,515.904 1074.83,516.093 1075,516.344C1075.17,516.596 1075.26,516.914 1075.26,517.299C1075.26,517.679 1075.17,517.992 1075,518.238C1074.83,518.485 1074.59,518.668 1074.29,518.786C1073.99,518.904 1073.63,518.964 1073.22,518.964L1072.34,518.964L1072.34,520.584C1072.34,520.633 1072.32,520.676 1072.29,520.713C1072.25,520.75 1072.2,520.769 1072.15,520.769L1071.15,520.769ZM1072.32,517.942L1073.18,517.942C1073.4,517.942 1073.57,517.888 1073.69,517.78C1073.82,517.671 1073.88,517.506 1073.88,517.284C1073.88,517.097 1073.83,516.939 1073.72,516.81C1073.61,516.682 1073.43,516.618 1073.18,516.618L1072.32,516.618L1072.32,517.942Z" style="fill:rgb(17,185,129);"/>
                </g>
                <g id="BOUNDING-BOX" transform="matrix(0.0403383,0,0,0.105543,1574.6,2015.49)">
                    <rect x="3367.07" y="1140.79" width="963.68" height="963.68" style="fill:none;"/>
                </g>
            </g>
        </g>
    </g>
</svg>
