<svg class="svg-icon" style="width: 1em; height: 1em;vertical-align: middle;fill: currentColor;overflow: hidden;" viewBox="0 0 1024 1024" version="1.1" xmlns="http://www.w3.org/2000/svg"><path d="M233.092779 473.447962l560.364521 0c0.289596-0.036839 0.518816-0.036839 0.788969 0 21.841447 0 39.547715-17.718547 39.547715-39.615253 0-12.96222-6.219655-24.449855-15.817244-31.688723L542.045293 150.419871c-14.94641-15.862269-42.59819-15.862269-57.541531 0L204.320479 406.634254c-10.832719 11.527544-13.784958 28.357861-7.528464 42.905182C203.028043 464.045825 217.315444 473.447962 233.092779 473.447962z"  /><path d="M793.853319 552.682561 233.488799 552.682561c-15.776312 0-30.063713 9.402137-36.300764 23.908526-6.257517 14.547321-3.305279 31.376615 7.528464 42.905182l280.183284 256.19801c7.471159 7.930623 17.878183 12.417821 28.768207 12.417821 10.891048 0 21.298072-4.486174 28.773324-12.417821l280.179191-256.19801c10.832719-11.527544 13.790074-28.357861 7.532557-42.905182C823.917032 562.084699 809.629631 552.682561 793.853319 552.682561z"  /></svg>
