<?xml version="1.0" encoding="UTF-8"?>
<svg version="1.1" xmlns="http://www.w3.org/2000/svg" width="512" height="512">
<path d="M0 0 C1.62719298 -0.00735126 3.25438076 -0.01594054 4.88156128 -0.02566528 C9.2738406 -0.04776743 13.66593172 -0.05081805 18.05825901 -0.04891777 C21.73152717 -0.04879766 25.40475603 -0.05737743 29.07801318 -0.06569529 C37.74181441 -0.08488482 46.40551929 -0.08782783 55.06933594 -0.08105469 C64.00027164 -0.07440151 72.93079565 -0.09733963 81.86164784 -0.13436842 C89.54258324 -0.16505638 97.22338603 -0.17642691 104.90438151 -0.1725316 C109.48652376 -0.17046493 114.06834475 -0.17593232 118.65042877 -0.20042419 C122.95495146 -0.22267686 127.2588021 -0.2208263 131.56332779 -0.20049667 C133.14112749 -0.19708511 134.71897237 -0.20218213 136.29671097 -0.21648026 C138.45373725 -0.23467797 140.6084839 -0.22192511 142.76544189 -0.20153809 C143.97106403 -0.2022506 145.17668617 -0.2029631 146.41884232 -0.2036972 C150.85621544 0.63413713 152.51162161 2.28389425 155.72167969 5.41992188 C158.4143403 9.48225956 158.38584389 13.69697641 157.72167969 18.41992188 C155.46565856 22.93196413 153.21106095 25.21175618 148.72167969 27.41992188 C145.66962242 27.79350948 145.66962242 27.79350948 142.19613647 27.79173279 C141.23356821 27.79746963 141.23356821 27.79746963 140.25155413 27.80332237 C138.10904801 27.81258102 135.96719264 27.80063301 133.82470703 27.78881836 C132.28518405 27.79128731 130.74566274 27.79512668 129.20614624 27.80023193 C125.89347102 27.80856447 122.58096774 27.80776677 119.26829147 27.80004692 C114.0224185 27.78844757 108.77676581 27.80064178 103.53091431 27.81666565 C90.49673798 27.85283816 77.46256669 27.85909553 64.42834473 27.85656738 C54.30565572 27.85485317 44.18314713 27.86207425 34.06050837 27.89654595 C28.85417282 27.91327737 23.64827821 27.91159858 18.44194484 27.89572322 C15.18982415 27.88989483 11.937909 27.90072305 8.68582535 27.91596985 C7.18753911 27.91967239 5.68921736 27.91665721 4.19096375 27.90609932 C-6.73541591 27.83428942 -17.44080803 28.71966992 -25.77832031 36.57617188 C-30.56535302 42.46023291 -33.39550639 49.43738268 -33.41254139 57.0043726 C-33.41699923 57.92516954 -33.42145708 58.84596647 -33.42605001 59.79466635 C-33.42586564 60.80272202 -33.42568128 61.81077768 -33.42549133 62.84938049 C-33.42916802 63.92309479 -33.43284471 64.99680909 -33.43663281 66.10306019 C-33.44767612 69.71332422 -33.45151462 73.32355948 -33.45532227 76.93383789 C-33.46158646 79.51753328 -33.46823322 82.10122777 -33.47523499 84.68492126 C-33.4949851 92.44755286 -33.50506427 100.21018573 -33.51396278 107.97283617 C-33.51834851 111.63094394 -33.52371462 115.28905027 -33.52895164 118.94715691 C-33.54596333 131.11226507 -33.56045628 143.27737235 -33.56770039 155.44249058 C-33.5696102 158.59846053 -33.57153054 161.75443047 -33.57348633 164.91040039 C-33.57397007 165.69477527 -33.57445381 166.47915015 -33.57495221 167.28729396 C-33.58324797 179.9863781 -33.60857745 192.6853679 -33.64106701 205.38441087 C-33.67417173 218.43058567 -33.69215227 231.47671259 -33.69534463 244.52292961 C-33.69750669 251.84448881 -33.70621056 259.16591048 -33.7318058 266.48742867 C-33.7558392 273.37800157 -33.75931706 280.26832363 -33.74904442 287.15892982 C-33.74854909 289.68442355 -33.75486855 292.20992946 -33.76860046 294.73538589 C-33.7863351 298.19107795 -33.77920441 301.64588443 -33.7660675 305.10157776 C-33.77703675 306.09401837 -33.788006 307.08645899 -33.79930764 308.10897356 C-33.71660224 317.15985088 -31.47924659 326.17353072 -25.12207031 332.91992188 C-19.23800928 337.70695458 -12.26085951 340.53710796 -4.69386959 340.55414295 C-3.77307265 340.5586008 -2.85227571 340.56305864 -1.90357584 340.56765157 C-0.89552017 340.56746721 0.1125355 340.56728284 1.15113831 340.5670929 C2.2248526 340.57076958 3.2985669 340.57444627 4.404818 340.57823437 C8.01508204 340.58927769 11.6253173 340.59311618 15.2355957 340.59692383 C17.81929109 340.60318802 20.40298558 340.60983478 22.98667908 340.61683655 C30.74931067 340.63658667 38.51194354 340.64666584 46.27459398 340.65556434 C49.93270175 340.65995007 53.59080808 340.66531619 57.24891472 340.67055321 C69.41402288 340.68756489 81.57913016 340.70205784 93.74424839 340.70930195 C96.90021834 340.71121176 100.05618828 340.7131321 103.2121582 340.71508789 C103.99653308 340.71557163 104.78090796 340.71605537 105.58905178 340.71655377 C118.28813591 340.72484953 130.98712571 340.75017901 143.68616868 340.78266857 C156.73234348 340.8157733 169.7784704 340.83375384 182.82468742 340.83694619 C190.14624662 340.83910825 197.4676683 340.84781213 204.78918648 340.87340736 C211.67975938 340.89744076 218.57008145 340.90091862 225.46068764 340.89064598 C227.98618136 340.89015065 230.51168727 340.89647012 233.03714371 340.91020203 C236.49283576 340.92793666 239.94764224 340.92080598 243.40333557 340.90766907 C244.39577619 340.91863831 245.3882168 340.92960756 246.41073138 340.94090921 C255.46160869 340.8582038 264.47528853 338.62084816 271.22167969 332.26367188 C276.64267961 325.60035947 278.84378653 318.41827866 278.85298157 309.98098755 C278.85509728 309.33660197 278.857213 308.69221639 278.85939282 308.02830398 C278.8653795 305.87122848 278.86439363 303.7142117 278.86352539 301.55712891 C278.86655775 300.00964255 278.87007942 298.46215708 278.87405396 296.91467285 C278.88193705 293.5829267 278.88708563 290.25119122 278.89034462 286.91943741 C278.89625877 281.64986144 278.91280262 276.38035286 278.9316864 271.11080933 C278.93802358 269.3062077 278.94434921 267.50160603 278.95066357 265.69700432 C278.95382938 264.79332422 278.95699519 263.88964412 278.96025693 262.95857978 C279.00232509 250.69163668 279.03531436 238.4247253 279.04760742 226.15771484 C279.0559865 217.88138575 279.07847004 209.60522386 279.11696309 201.32897842 C279.13672615 196.95025043 279.14912745 192.57177242 279.1441288 188.19299698 C279.13948389 184.0740823 279.1532788 179.95564163 279.1811409 175.83682251 C279.18805489 174.32677644 279.18817695 172.81668137 279.18094063 171.30663681 C279.17204489 169.24146991 279.18775391 167.17786386 279.20942688 165.11282349 C279.21300941 163.38119304 279.21300941 163.38119304 279.21666431 161.61458015 C279.97411228 156.82306779 282.26387801 153.66946617 285.90917969 150.54492188 C289.91942308 148.94082452 293.46213332 148.73629098 297.72167969 149.41992188 C301.68206217 151.47345353 304.43517792 153.59335856 306.72167969 157.41992188 C307.10478973 160.46269703 307.10478973 160.46269703 307.11608887 164.102005 C307.12217997 164.77270891 307.12827107 165.44341281 307.13454676 166.13444108 C307.15119089 168.38122221 307.14639894 170.62743744 307.14160156 172.87426758 C307.14894178 174.48597299 307.15752787 176.09767314 307.16726685 177.70936584 C307.18951381 182.09020813 307.19241138 186.47086245 307.19051933 190.85175347 C307.19039961 194.51641639 307.19896594 198.18103954 307.20729685 201.84569138 C307.22654801 210.50400675 307.22941092 219.16222573 307.22265625 227.82055664 C307.21603706 236.72392421 307.23878993 245.6268752 307.27596998 254.53015834 C307.30678861 262.19073143 307.31801321 269.85117149 307.31413317 277.51180524 C307.31207557 282.07923386 307.31738831 286.64633942 307.34202576 291.21370888 C307.36448769 295.52064065 307.36225588 299.8269042 307.34209824 304.13384056 C307.33872052 305.70301724 307.34363514 307.27224056 307.35808182 308.84135437 C307.48685713 323.88319948 304.44689531 336.4537729 294.72167969 348.41992188 C294.0990625 349.25136719 293.47644531 350.0828125 292.83496094 350.93945312 C284.78466879 360.38850213 271.38658553 367.43385714 258.99323106 368.69829261 C256.00703252 368.80662569 253.03404931 368.8247977 250.04592896 368.80760193 C248.34297143 368.81568024 248.34297143 368.81568024 246.60561073 368.82392174 C242.82273648 368.83816493 239.04021396 368.83110634 235.25732422 368.82397461 C232.53642882 368.8280387 229.81555109 368.83654502 227.09466553 368.84477234 C220.48388746 368.86192249 213.87320459 368.86280822 207.26241006 368.85755944 C201.8861208 368.85350931 196.50985956 368.85497127 191.13357162 368.86030769 C189.98347535 368.86143033 189.98347535 368.86143033 188.8101448 368.86257564 C187.25226291 368.8641072 185.69438103 368.86564555 184.13649915 368.86719061 C169.54410091 368.88090204 154.95175637 368.87548759 140.35935937 368.86400539 C127.02760441 368.85407517 113.69598828 368.86701243 100.36425473 368.89093959 C86.65455533 368.91535853 72.94492051 368.92493155 59.23519981 368.91828686 C51.54651023 368.91480075 43.85792737 368.91698637 36.1692543 368.93453789 C29.6238952 368.94929492 23.07871796 368.94984985 16.53336228 368.93246698 C13.19802899 368.92398288 9.86328524 368.9239303 6.5279274 368.93711853 C2.90211429 368.95035728 -0.72282609 368.93875385 -4.34860229 368.92112732 C-5.38851063 368.93073233 -6.42841896 368.94033733 -7.49983966 368.9502334 C-20.86200154 368.81724601 -34.6768803 363.32397511 -44.59082031 354.24414062 C-56.01281392 341.89675401 -61.75836953 328.51846169 -61.67272949 311.76435852 C-61.6788206 310.6311702 -61.6849117 309.49798189 -61.69118738 308.33045453 C-61.70776153 304.55459077 -61.70304936 300.77906631 -61.69824219 297.00317383 C-61.7039526 294.28714438 -61.71408098 291.57113504 -61.72390747 288.8551178 C-61.74490348 282.2553715 -61.74950563 275.65571315 -61.74771959 269.05593739 C-61.74640879 263.68682391 -61.75023228 258.31773772 -61.75764465 252.94862938 C-61.759744 251.3983964 -61.7618416 249.84816341 -61.76393747 248.29793042 C-61.764981 247.52617355 -61.76602453 246.75441668 -61.76709968 245.95927324 C-61.78597922 231.38109479 -61.78495914 216.80296672 -61.77813035 202.22478112 C-61.77255902 188.9144266 -61.79336688 175.6042648 -61.82649082 162.2939553 C-61.86029986 148.60118948 -61.87538703 134.90851578 -61.87077379 121.21570748 C-61.86853606 113.53862926 -61.87366946 105.86172904 -61.89866638 98.18468666 C-61.91977323 91.64707268 -61.92317948 85.10973427 -61.90436679 78.5721086 C-61.89526508 75.24236661 -61.89664904 71.91355322 -61.91472244 68.58378601 C-62.0080855 50.09951025 -61.38493802 35.31620764 -49.27832031 20.41992188 C-48.65570313 19.58847656 -48.03308594 18.75703125 -47.39160156 17.90039062 C-35.0811626 3.45098445 -17.94993113 -0.03853062 0 0 Z " fill="#FFFFFF" transform="translate(133.2783203125,71.580078125)"/>
<path d="M0 0 C12.17542714 9.46553583 21.18132816 22.45258274 23.4921875 37.9375 C24.63428402 55.28309097 23.29972615 71.11804266 11.77457905 85.00745869 C4.19605202 93.4541848 -3.84139619 101.44229011 -11.8527832 109.4753418 C-13.49981683 111.13029062 -15.14667275 112.78541632 -16.79336548 114.44070435 C-22.16971767 119.84309151 -27.55135699 125.24019512 -32.93359375 130.63671875 C-34.79347002 132.5019605 -36.65334026 134.36720826 -38.51320457 136.23246193 C-46.24988873 143.99073888 -53.98792542 151.74766244 -61.72984028 159.50072002 C-63.73063925 161.50444786 -65.73142173 163.50819216 -67.73217773 165.51196289 C-68.22935439 166.0098856 -68.72653105 166.50780831 -69.23877367 167.02081958 C-77.29890502 175.09361491 -85.34868713 183.17664956 -93.39431248 191.26389947 C-101.6795614 199.59165679 -109.97429208 207.90987609 -118.27821416 216.21901447 C-122.93038653 220.8748323 -127.5783184 225.53470317 -132.21602821 230.20493126 C-136.57752954 234.59658089 -140.95084512 238.97611592 -145.3333168 243.34683609 C-146.93394474 244.94724394 -148.53034417 246.55189455 -150.12202644 248.16119957 C-165.03563598 263.23082413 -178.58345918 272.97617234 -200.45703125 273.17578125 C-201.31029495 273.183853 -202.16355865 273.19192474 -203.04267883 273.20024109 C-204.84378056 273.21402291 -206.64490777 273.22477124 -208.44604492 273.23266602 C-210.27001719 273.24416606 -212.09395633 273.26458654 -213.91772461 273.29418945 C-238.39381168 273.6907158 -238.39381168 273.6907158 -247.8828125 264.6875 C-255.79968665 257.02195519 -259.65518109 249.29801513 -259.83700562 238.25242615 C-259.83923126 237.43564896 -259.84145691 236.61887177 -259.84375 235.77734375 C-259.8504068 234.91041397 -259.8570636 234.04348419 -259.86392212 233.15028381 C-259.87400626 231.3206696 -259.87874046 229.49101893 -259.87841797 227.66137695 C-259.88276192 224.90707179 -259.91904478 222.15440988 -259.95703125 219.40039062 C-260.10361283 197.85362879 -253.96439574 182.96109277 -238.83429277 167.59483492 C-236.44940359 165.20112225 -234.05269483 162.81963445 -231.65551758 160.43823242 C-229.92909991 158.70503035 -228.20374571 156.97076842 -226.47937012 155.23553467 C-222.29824103 151.03405574 -218.10560798 146.84428677 -213.90703247 142.66026022 C-210.4918119 139.25638006 -207.08156181 135.84759206 -203.67471886 132.43532753 C-203.18789302 131.94773553 -202.70106719 131.46014353 -202.19948905 130.95777601 C-201.21020846 129.96689663 -200.22093902 128.97600611 -199.23168059 127.9851046 C-189.97765239 118.71685446 -180.70842474 109.46392797 -171.43383446 100.21626029 C-163.49429953 92.29906088 -155.56796447 84.36884469 -147.65112305 76.42895508 C-138.4341592 67.18517018 -129.20905707 57.94963211 -119.97101516 48.7269085 C-118.9839947 47.74148062 -117.9969846 46.75604238 -117.00998497 45.77059364 C-116.28174388 45.04350962 -116.28174388 45.04350962 -115.53879086 44.30173704 C-112.13534049 40.90258479 -108.73768728 37.49770486 -105.34229469 34.0905056 C-100.7633815 29.49601929 -96.1711866 24.91507771 -91.57010651 20.3427887 C-89.88890403 18.66816709 -88.21188531 16.98933251 -86.53951836 15.30588722 C-62.67668819 -8.70033572 -30.83302975 -21.22629941 0 0 Z M-68.0078125 36.3125 C-68.83023438 37.14394531 -69.65265625 37.97539063 -70.5 38.83203125 C-72.50728801 40.86265982 -74.50971784 42.89783167 -76.5078125 44.9375 C-75.03658634 48.34103022 -73.13838737 50.55005749 -70.51708984 53.15527344 C-69.69639008 53.97582214 -68.87569031 54.79637085 -68.03012085 55.64178467 C-67.14361847 56.51796448 -66.25711609 57.39414429 -65.34375 58.296875 C-64.43654205 59.20125305 -63.52933411 60.1056311 -62.59463501 61.03741455 C-60.18896831 63.43546458 -57.77735514 65.82744618 -55.36444092 68.21820068 C-52.90078906 70.66135171 -50.44282673 73.11021206 -47.984375 75.55859375 C-43.16407677 80.35683788 -38.33811407 85.14932732 -33.5078125 89.9375 C-28.25912825 87.43831374 -24.7174817 83.51557038 -20.6328125 79.4375 C-19.84261719 78.67179687 -19.05242187 77.90609375 -18.23828125 77.1171875 C-10.18998944 69.10907019 -3.79369128 60.35614087 -3.1328125 48.6875 C-3.37212434 39.90774672 -7.2184443 31.0659462 -13.5078125 24.9375 C-34.65657051 9.24197546 -51.86301967 19.8258793 -68.0078125 36.3125 Z M-102.56732178 70.71612549 C-103.08749193 71.2303534 -103.60766209 71.74458131 -104.14359498 72.27439189 C-105.89711775 74.01047859 -107.64333398 75.7537351 -109.38964844 77.49707031 C-110.64088884 78.73905802 -111.89252588 79.98064624 -113.14453125 81.22186279 C-116.55481382 84.60584102 -119.9583478 87.99652824 -123.35993481 91.38924503 C-125.48679771 93.51025006 -127.61483093 95.63007392 -129.74323273 97.74953461 C-136.40604072 104.38496583 -143.06480546 111.02441555 -149.71779418 117.66969228 C-157.38909134 125.33204825 -165.07323425 132.98120009 -172.76904082 140.61893773 C-178.71948806 146.52604624 -184.65825303 152.44473666 -190.58840394 158.3722198 C-194.12827277 161.90999827 -197.67277333 165.44280877 -201.22948456 168.96366119 C-204.58181717 172.28285456 -207.91931133 175.6163008 -211.24636841 178.96082306 C-212.46414943 180.18013591 -213.6869916 181.3944202 -214.91544342 182.60298157 C-227.00332843 194.50668624 -232.57687541 204.86103922 -232.7421875 222.14648438 C-232.74734375 223.25314453 -232.7525 224.35980469 -232.7578125 225.5 C-232.7784375 226.61052734 -232.7990625 227.72105469 -232.8203125 228.86523438 C-232.96076752 236.88508112 -232.96076752 236.88508112 -229.5078125 243.9375 C-225.88775621 245.74616061 -222.92302965 246.19365262 -218.90234375 246.203125 C-217.30229492 246.20699219 -217.30229492 246.20699219 -215.66992188 246.2109375 C-214.56455078 246.20320312 -213.45917969 246.19546875 -212.3203125 246.1875 C-210.69125977 246.19910156 -210.69125977 246.19910156 -209.02929688 246.2109375 C-192.01017578 246.17005072 -182.17442736 241.11791332 -170.20402527 229.13139343 C-169.04061292 227.95383058 -167.87739605 226.77607456 -166.71435547 225.59814453 C-165.46252505 224.34518388 -164.20980933 223.0931072 -162.95628357 221.84184265 C-159.57813621 218.46483651 -156.21240996 215.07569706 -152.84887838 211.68414164 C-149.32338692 208.13353735 -145.78646055 204.59436038 -142.25076294 201.05392456 C-135.56712195 194.35788276 -128.89373762 187.65171604 -122.22403252 180.94179618 C-114.62609086 173.29904658 -107.01670172 165.66773796 -99.40635848 158.0373404 C-83.76079344 142.35003665 -68.129566 126.64851361 -52.5078125 110.9375 C-54.09758097 107.58691358 -55.83582372 105.35653123 -58.46679688 102.71972656 C-59.28104126 101.89917786 -60.09528564 101.07862915 -60.9342041 100.23321533 C-61.81443237 99.35703552 -62.69466064 98.48085571 -63.6015625 97.578125 C-64.5040271 96.67374695 -65.4064917 95.7693689 -66.33630371 94.83758545 C-68.24376354 92.92876509 -70.15311662 91.02209451 -72.06591797 89.11865234 C-74.52087559 86.67512119 -76.96670243 84.22267765 -79.40996552 81.76745987 C-81.73981844 79.42866087 -84.07725781 77.09747507 -86.4140625 74.765625 C-87.29429077 73.88134827 -88.17451904 72.99707153 -89.0814209 72.08599854 C-90.30278748 70.87408844 -90.30278748 70.87408844 -91.54882812 69.63769531 C-92.26671509 68.92139954 -92.98460205 68.20510376 -93.72424316 67.46710205 C-97.64347636 64.10593912 -99.52876665 67.69691934 -102.56732178 70.71612549 Z " fill="#FFFFFF" transform="translate(416.5078125,82.0625)"/>
</svg>
