<?xml version="1.0" encoding="UTF-8" standalone="no"?>
<!DOCTYPE svg PUBLIC "-//W3C//DTD SVG 1.1//EN" "http://www.w3.org/Graphics/SVG/1.1/DTD/svg11.dtd">
<svg width="100%" height="100%" viewBox="0 0 308 57" version="1.1" xmlns="http://www.w3.org/2000/svg" xmlns:xlink="http://www.w3.org/1999/xlink" xml:space="preserve" xmlns:serif="http://www.serif.com/" style="fill-rule:evenodd;clip-rule:evenodd;stroke-linejoin:round;stroke-miterlimit:2;">
    <g transform="matrix(1,0,0,1,-3447.73,-5417.38)">
        <g transform="matrix(1.36342,0,0,1.36342,1471.31,-808.996)">
            <g transform="matrix(1,0,0,1,-15.0442,205.961)">
                <g transform="matrix(0.733449,0,0,0.733449,-1079.13,593.357)">
                    <path d="M3542.02,5185.13L3542.02,5143.72L3548.21,5143.72L3548.21,5161.45L3566.99,5161.45L3566.99,5143.72L3573.17,5143.72L3573.17,5185.13L3566.99,5185.13L3566.99,5167.16L3548.21,5167.16L3548.21,5185.13L3542.02,5185.13ZM3579.18,5154.22L3585.25,5154.22L3585.25,5185.13L3579.18,5185.13L3579.18,5154.22ZM3579.12,5149.61L3579.12,5143.72L3585.42,5143.72L3585.42,5149.61L3579.12,5149.61ZM3609.34,5163.9C3608.7,5160.63 3605.55,5158.65 3602.34,5158.65C3599.19,5158.65 3596.62,5160.28 3596.68,5163.02C3596.68,5165.82 3600.36,5166.99 3603.51,5167.57C3611.09,5168.97 3616.11,5171.02 3616.11,5177.08C3616.11,5183.15 3609.92,5185.83 3603.57,5185.83C3595.75,5185.83 3590.09,5181.81 3589.62,5175.39L3595.87,5174.98C3596.45,5178.48 3599.19,5180.64 3603.51,5180.64C3606.25,5180.64 3609.81,5179.71 3609.81,5176.85C3609.75,5173.47 3605.84,5173.06 3602.46,5172.3C3596.04,5170.9 3590.38,5169.21 3590.38,5163.26C3590.38,5157.25 3595.22,5153.52 3602.87,5153.52C3609.46,5153.52 3614.59,5157.42 3615.58,5163.55L3609.34,5163.9ZM3619.32,5163.43C3620.54,5157.25 3625.44,5153.52 3632.44,5153.52C3640.84,5153.52 3645.39,5158.18 3645.39,5166.58L3645.39,5178.25C3645.39,5179.71 3646.03,5180.23 3647.26,5180.23L3648.54,5180.23L3648.54,5185.13L3646.5,5185.13C3643.7,5185.19 3640.02,5184.61 3639.79,5180.41C3638.45,5183.32 3635.01,5185.83 3629.93,5185.83C3623.75,5185.83 3618.79,5182.57 3618.79,5177.02C3618.79,5170.78 3623.4,5169.03 3630.46,5167.69L3639.32,5165.94C3639.26,5160.98 3636.99,5158.59 3632.44,5158.59C3628.82,5158.59 3626.43,5160.4 3625.56,5163.84L3619.32,5163.43ZM3625.09,5176.91C3625.09,5179.18 3627.01,5181.05 3631.1,5181.05C3635.82,5181.05 3639.44,5177.72 3639.44,5170.96L3639.44,5170.66L3632.79,5171.83C3628.47,5172.59 3625.09,5172.94 3625.09,5176.91ZM3652.22,5143.72L3658.28,5143.72L3658.28,5158.24C3660.09,5155.15 3663.24,5153.52 3667.67,5153.52C3676.54,5153.52 3680.74,5161.04 3680.74,5169.67C3680.74,5178.31 3676.54,5185.83 3667.67,5185.83C3663.01,5185.83 3659.74,5183.97 3658.05,5180.82L3657.87,5185.13L3652.22,5185.13L3652.22,5143.72ZM3657.82,5169.67C3657.82,5175.22 3660.21,5180.52 3666.16,5180.52C3672.05,5180.52 3674.44,5175.22 3674.44,5169.67C3674.44,5163.9 3672.11,5158.65 3666.16,5158.65C3660.21,5158.65 3657.82,5163.96 3657.82,5169.67ZM3710.02,5185.13L3704.31,5185.13L3704.25,5180.06C3702.62,5184.08 3699.12,5185.83 3695.09,5185.83C3688.26,5185.83 3684.76,5180.82 3684.76,5174.11L3684.76,5154.22L3690.83,5154.22L3690.83,5172.24C3690.83,5177.72 3692.47,5180.7 3696.66,5180.7C3701.04,5180.7 3703.96,5177.72 3703.96,5172.24L3703.96,5154.22L3710.02,5154.22L3710.02,5185.13ZM3716.44,5154.22L3721.92,5154.22L3722.1,5159.47C3723.73,5155.32 3727.29,5153.52 3731.55,5153.52C3738.49,5153.52 3741.99,5158.53 3741.99,5165.24L3741.99,5185.13L3735.92,5185.13L3735.92,5167.05C3735.92,5161.62 3734.29,5158.65 3729.97,5158.65C3725.37,5158.65 3722.51,5161.62 3722.51,5167.05L3722.51,5185.13L3716.44,5185.13L3716.44,5154.22ZM3746.6,5163.43C3747.82,5157.25 3752.72,5153.52 3759.72,5153.52C3768.12,5153.52 3772.67,5158.18 3772.67,5166.58L3772.67,5178.25C3772.67,5179.71 3773.32,5180.23 3774.54,5180.23L3775.82,5180.23L3775.82,5185.13L3773.78,5185.13C3770.98,5185.19 3767.31,5184.61 3767.07,5180.41C3765.73,5183.32 3762.29,5185.83 3757.22,5185.83C3751.03,5185.83 3746.07,5182.57 3746.07,5177.02C3746.07,5170.78 3750.68,5169.03 3757.74,5167.69L3766.61,5165.94C3766.55,5160.98 3764.27,5158.59 3759.72,5158.59C3756.11,5158.59 3753.72,5160.4 3752.84,5163.84L3746.6,5163.43ZM3752.37,5176.91C3752.37,5179.18 3754.3,5181.05 3758.38,5181.05C3763.11,5181.05 3766.72,5177.72 3766.72,5170.96L3766.72,5170.66L3760.07,5171.83C3755.76,5172.59 3752.37,5172.94 3752.37,5176.91Z" style="fill:rgb(1,44,35);"/>
                </g>
                <g transform="matrix(0.444266,0,0,0.444266,1361.87,2848.29)">
                    <path d="M277.894,3474.28L301.589,3451L324.87,3451L324.87,3474.28L301.589,3497.56L301.175,3497.16L301.175,3497.56L277.894,3497.56L277.894,3474.28ZM277.894,3474.28L254.613,3497.56L231.332,3497.56L231.332,3427.72L254.613,3404.44L277.894,3404.44L277.894,3474.28Z" style="fill:rgb(52,211,153);"/>
                </g>
            </g>
        </g>
    </g>
</svg>
